# xmcd
# 
# Track frame offsets:
#     200
#     9912
#     19410
#     28822
#     39040
#     48832
#     59207
#     68627
#     79030
#     89107
#     99267
#     109292
#     119105
#     129270
#     139607
#     149340
#     159067
#     169387
# 
# Disc length: 2389
# 
# Revision: 2
# Processed by: cddbd v1.5.1PL0 Copyright (c) Steve Scherf et al.
# Submitted via: BonkEnc v1.0beta3
# 
DISCID=f2095312
DTITLE=Porter Music Box - Music Box Christmas
DYEAR=1900
DGENRE=Holiday
TTITLE0=Still Night, Holy Night
TTITLE1=Monastery Bells
TTITLE2=O Sanctissima
TTITLE3=Joy To The World
TTITLE4=Adeste Fideles
TTITLE5=God Rest Ye Merry Gentlemen
TTITLE6=Greensleeves
TTITLE7=Jingle Bells
TTITLE8=Angels We Have Heard On High
TTITLE9=O Tannenbaum
TTITLE10=Ave Maria
TTITLE11=Come Hither Ye Children
TTITLE12=Good King Wenceslas
TTITLE13=O Holy Night
TTITLE14=Hark, The Herald Angels Sing
TTITLE15=Deck The Halls
TTITLE16=The First Noel
TTITLE17=Auld Lang Syne
EXTD=
EXTT0=
EXTT1=
EXTT2=
EXTT3=
EXTT4=
EXTT5=
EXTT6=
EXTT7=
EXTT8=
EXTT9=
EXTT10=
EXTT11=
EXTT12=
EXTT13=
EXTT14=
EXTT15=
EXTT16=
EXTT17=
PLAYORDER=
